<svg xmlns="http://www.w3.org/2000/svg" version="1.1" xmlns:xlink="http://www.w3.org/1999/xlink" xmlns:svgjs="http://svgjs.dev/svgjs" width="1500" height="1500" viewBox="0 0 1500 1500"><rect width="1500" height="1500" fill="#ffffff"></rect><g transform="matrix(0.6666666666666666,0,0,0.6666666666666666,249.39393939393938,635.6660685038124)"><svg viewBox="0 0 396 90" data-background-color="#ffffff" preserveAspectRatio="xMidYMid meet" height="340" width="1500" xmlns="http://www.w3.org/2000/svg" xmlns:xlink="http://www.w3.org/1999/xlink"><g id="tight-bounds" transform="matrix(1,0,0,1,0.2400000000000091,0.39729632936862913)"><svg viewBox="0 0 395.52 89.20540734126274" height="89.20540734126274" width="395.52"><g><svg viewBox="0 0 519.3792687914377 117.14057250492361" height="89.20540734126274" width="395.52"><g><rect width="7.678092803497768" height="117.14057250492361" x="96.08145660705569" y="0" fill="#000000" opacity="1" stroke-width="0" stroke="transparent" fill-opacity="1" class="rect-yte-0" data-fill-palette-color="primary" rx="1%" id="yte-0" data-palette-color="#010102"></rect></g><g transform="matrix(1,0,0,1,123.85926879143766,0.2913944589674671)"><svg viewBox="0 0 395.52 116.55778358698868" height="116.55778358698868" width="395.52"><g id="textblocktransform"><svg viewBox="0 0 395.52 116.55778358698868" height="116.55778358698868" width="395.52" id="textblock"><g><svg viewBox="0 0 395.52 85.14088421052631" height="85.14088421052631" width="395.52"><g transform="matrix(1,0,0,1,0,0)"><svg width="395.52" viewBox="3.91 -38.18 231.91 49.92" height="85.14088421052631" data-palette-color="#010102"><path d="M17.43 0L9.94 0Q7.42 0 6.12-0.63 4.81-1.27 4.36-2.71 3.91-4.15 3.91-6.54L3.91-6.54 3.91-28.47Q3.91-30.91 4.36-32.34 4.81-33.76 6.12-34.39 7.42-35.01 9.94-35.01L9.94-35.01 17.43-35.01Q22.68-35.01 26.62-33.45 30.57-31.88 32.76-28.16 34.96-24.44 34.96-17.94L34.96-17.94Q34.96-11.45 32.76-7.51 30.57-3.56 26.62-1.78 22.68 0 17.43 0L17.43 0ZM15.65-28.59L14.58-28.59Q12.96-28.59 12.38-27.91 11.79-27.22 11.79-25.56L11.79-25.56 11.79-9.45Q11.79-7.81 12.38-7.1 12.96-6.4 14.58-6.4L14.58-6.4 15.7-6.4Q20.92-6.4 23.79-8.96 26.66-11.52 26.66-17.85L26.66-17.85Q26.66-22.07 25.35-24.4 24.05-26.73 21.58-27.66 19.12-28.59 15.65-28.59L15.65-28.59ZM39.33-33.2L39.33-33.2Q39.33-33.52 39.52-33.76 39.72-34.01 40.04-34.4L40.04-34.4Q40.72-35.18 41.62-36.05 42.53-36.91 43.45-37.72L43.45-37.72Q44.04-38.18 44.33-38.18L44.33-38.18Q44.63-38.18 45.24-37.72L45.24-37.72Q47.21-36.01 48.61-34.4L48.61-34.4Q48.92-34.03 49.13-33.78 49.34-33.52 49.34-33.2L49.34-33.2Q49.34-32.89 49.13-32.64 48.92-32.4 48.58-31.98L48.58-31.98Q47.92-31.23 47.04-30.36 46.16-29.49 45.24-28.71L45.24-28.71Q44.89-28.42 44.7-28.33 44.5-28.25 44.33-28.25L44.33-28.25Q44.16-28.25 43.98-28.33 43.8-28.42 43.41-28.71L43.41-28.71Q42.43-29.49 41.57-30.36 40.72-31.23 40.04-32.03L40.04-32.03Q39.72-32.42 39.52-32.65 39.33-32.89 39.33-33.2ZM48.17-23.71L48.17-1.29Q48.17-0.56 47.86-0.28 47.56 0 46.82 0L46.82 0 41.79 0Q41.06 0 40.76-0.28 40.45-0.56 40.45-1.29L40.45-1.29 40.45-23.71Q40.45-24.44 40.76-24.72 41.06-25 41.79-25L41.79-25 46.82-25Q47.56-25 47.86-24.72 48.17-24.44 48.17-23.71L48.17-23.71ZM78.97-15.55L78.97-15.55 78.97-1.29Q78.97-0.56 78.67-0.28 78.36 0 77.63 0L77.63 0 72.6 0Q71.87 0 71.56-0.28 71.26-0.56 71.26-1.29L71.26-1.29 71.26-14.28Q71.26-16.94 70.14-18.16 69.01-19.38 67.08-19.38L67.08-19.38Q65.16-19.38 64.12-18.55 63.08-17.72 62.52-16.46L62.52-16.46 62.52-1.29Q62.52-0.56 62.21-0.28 61.91 0 61.18 0L61.18 0 56.15 0Q55.41 0 55.11-0.28 54.8-0.56 54.8-1.29L54.8-1.29 54.8-21.75Q54.8-22.34 55.05-22.66L55.05-22.66Q55.56-23.34 56.28-24.05 57-24.76 58.05-25.56L58.05-25.56Q58.37-25.81 58.66-25.81L58.66-25.81Q58.93-25.81 59.27-25.56L59.27-25.56Q60.3-24.76 61.03-24.02 61.76-23.29 62.32-22.51L62.32-22.51 62.45-22.51Q62.86-23.05 63.69-23.77 64.52-24.49 66.02-25.05 67.52-25.61 69.87-25.61L69.87-25.61Q72.16-25.61 74.24-24.68 76.31-23.75 77.64-21.56 78.97-19.36 78.97-15.55ZM97.82 0.61L97.82 0.61Q93.69 0.61 90.64-0.72 87.59-2.05 85.91-4.86 84.22-7.67 84.22-12.11L84.22-12.11Q84.22-18.77 87.64-22.19 91.06-25.61 96.72-25.61L96.72-25.61Q100.41-25.61 102.96-24.29 105.51-22.97 106.84-20.65 108.17-18.33 108.17-15.36L108.17-15.36Q108.17-12.45 106.68-11.3 105.19-10.16 102.34-10.16L102.34-10.16 91.86-10.16Q92.06-7.64 93.71-6.32 95.35-5 98.19-5L98.19-5Q100.43-5 101.79-5.68 103.14-6.35 103.68-6.74L103.68-6.74Q104.14-7.08 104.73-7.06L104.73-7.06Q105.19-7.06 106.06-6.87 106.93-6.69 107.78-6.2L107.78-6.2Q108.39-5.88 108.39-5.32L108.39-5.32Q108.39-5 108.27-4.42L108.27-4.42Q108.2-4.08 108.02-3.43 107.85-2.78 107.59-2.22L107.59-2.22Q107.44-1.95 107.12-1.71L107.12-1.71Q106.63-1.37 105.55-0.81 104.46-0.24 102.58 0.18 100.7 0.61 97.82 0.61ZM91.81-15.16L91.81-15.16 99.77-15.16Q101.02-15.16 101.02-16.31L101.02-16.31Q101.02-18.04 99.93-19.23 98.85-20.41 96.67-20.41L96.67-20.41Q94.3-20.41 93.19-18.9 92.08-17.38 91.81-15.16ZM133-14.06L133-14.06Q134.54-12.6 135.73-11.5L135.73-11.5Q137.34-13.77 137.81-16.09 138.27-18.41 138.27-20.56L138.27-20.56 138.27-20.7Q138.27-21.29 138.52-21.61L138.52-21.61Q139.47-22.9 141.47-24.51L141.47-24.51Q141.81-24.76 142.08-24.76L142.08-24.76Q142.37-24.76 142.67-24.51L142.67-24.51Q144.62-22.97 145.62-21.61L145.62-21.61Q145.86-21.29 145.86-20.7L145.86-20.7 145.86-20.68Q145.86-17.46 144.59-13.9 143.32-10.35 140.76-7.2L140.76-7.2Q142.01-6.3 142.79-6.05 143.57-5.81 144.37-5.81L144.37-5.81Q145.2-5.81 145.8-5.91 146.4-6.01 146.82-6.1L146.82-6.1Q147.62-6.32 147.82-5.59L147.82-5.59 148.99-1.42Q149.21-0.68 148.6-0.39L148.6-0.39Q147.99-0.1 146.78 0.23 145.57 0.56 143.79 0.56L143.79 0.56Q142.59 0.56 141.47 0.38 140.35 0.2 139-0.46 137.66-1.12 135.81-2.51L135.81-2.51Q133.32-0.78 130.69-0.11 128.07 0.56 124.84 0.56L124.84 0.56Q121.25 0.56 118.36-0.65 115.47-1.86 113.77-4.25 112.07-6.64 112.07-10.16L112.07-10.16Q112.07-13.28 113.76-15.58 115.44-17.87 118.3-19.63L118.3-19.63Q116.86-21.63 116.32-23.32 115.79-25 115.79-26.9L115.79-26.9Q115.79-29.47 117.13-31.42 118.47-33.37 120.86-34.48 123.26-35.6 126.41-35.6L126.41-35.6Q131.34-35.6 133.82-33.42 136.29-31.25 136.29-27.56L136.29-27.56Q136.29-25.37 135.46-23.82 134.63-22.27 132.92-21 131.22-19.73 128.53-18.41L128.53-18.41Q129.46-17.46 130.57-16.38 131.68-15.31 133-14.06ZM122.96-26.95L122.96-26.95Q122.96-25.07 124.65-22.75L124.65-22.75Q127.38-24.1 128.3-25.05 129.21-26 129.21-27.25L129.21-27.25Q129.21-28.44 128.52-29.2 127.82-29.96 126.31-29.96L126.31-29.96Q124.48-29.96 123.72-29.06 122.96-28.17 122.96-26.95ZM119.89-10.47L119.89-10.47Q119.89-8.15 121.46-6.74 123.04-5.32 125.45-5.32L125.45-5.32Q126.92-5.32 128.19-5.66 129.46-6.01 130.75-6.81L130.75-6.81Q129.34-8.08 127.68-9.67L127.68-9.67Q126.06-11.18 124.73-12.5 123.4-13.82 122.3-14.97L122.3-14.97Q120.96-13.92 120.42-12.87 119.89-11.82 119.89-10.47ZM167.15-11.69L167.15-11.69Q166.52-11.69 166.08-12.01L166.08-12.01Q165.61-12.33 164.98-12.92 164.34-13.5 163.56-14.36L163.56-14.36Q163.27-14.7 163.27-14.97L163.27-14.97Q163.27-15.23 163.56-15.58L163.56-15.58Q165.08-17.29 166.32-18.09L166.32-18.09Q166.61-18.29 167.15-18.29L167.15-18.29Q168.81-18.29 170.02-19.53 171.23-20.78 171.18-23.56L171.18-23.56Q171.15-26.56 169.7-27.76 168.25-28.96 165.73-28.96L165.73-28.96 164.56-28.96Q162.95-28.96 162.37-28.27 161.78-27.59 161.78-25.93L161.78-25.93 161.78-1.29Q161.78-0.56 161.47-0.28 161.17 0 160.44 0L160.44 0 155.24 0Q154.5 0 154.2-0.28 153.89-0.56 153.89-1.29L153.89-1.29 153.89-28.47Q153.89-30.91 154.35-32.34 154.8-33.76 156.1-34.39 157.41-35.01 159.92-35.01L159.92-35.01 165.73-35.01Q172.74-35.01 176.11-32.26 179.48-29.52 179.48-23.85L179.48-23.85Q179.48-19.6 177.71-16.92 175.94-14.23 173.12-12.96 170.3-11.69 167.15-11.69ZM190.71 0.61L190.71 0.61Q187.12 0.61 185.01-1.4 182.9-3.42 182.9-6.96L182.9-6.96Q182.9-8.79 183.57-10.36 184.24-11.94 185.91-13.15 187.58-14.36 190.6-15.09 193.61-15.82 198.3-15.94L198.3-15.94Q198.3-18.16 197.19-19.14 196.08-20.12 193.86-20.12L193.86-20.12Q191.86-20.12 190.59-19.43 189.32-18.75 189-18.51L189-18.51Q188.66-18.21 188.17-18.29L188.17-18.29Q187.51-18.38 186.76-18.63 186.02-18.87 185.17-19.19L185.17-19.19Q185.04-19.24 184.9-19.35 184.75-19.46 184.73-19.68L184.73-19.68Q184.73-19.8 184.75-19.98 184.78-20.17 184.87-20.65L184.87-20.65Q184.97-21.14 185.17-21.86 185.36-22.58 185.53-22.97L185.53-22.97Q185.75-23.39 186.26-23.75L186.26-23.75Q186.68-24.1 188.78-24.85 190.88-25.61 194.86-25.61L194.86-25.61Q205.82-25.61 205.82-14.94L205.82-14.94 205.82-1.12Q205.82-0.66 205.56-0.33 205.31 0 204.7 0L204.7 0 201.03 0Q200.64 0 200.34-0.11 200.03-0.22 199.77-0.54L199.77-0.54 198.25-2.49 198.08-2.49Q196.96-0.85 195.07-0.12 193.17 0.61 190.71 0.61ZM193.39-5.05L193.39-5.05Q195.64-5.05 196.79-6.2 197.93-7.35 198.25-8.57L198.25-8.57 198.25-11.28Q194.86-11.28 193.16-10.75 191.46-10.23 190.9-9.39 190.34-8.54 190.34-7.57L190.34-7.57Q190.34-6.15 191.22-5.6 192.1-5.05 193.39-5.05ZM213.19 11.74L213.19 11.74Q212.29 11.74 211.82 11.56 211.36 11.38 211.04 11.11L211.04 11.11Q210.41 10.5 209.67 9.4L209.67 9.4Q209.5 9.13 209.31 8.78 209.11 8.42 209.11 8.18L209.11 8.18Q209.11 7.91 209.24 7.69 209.36 7.47 209.53 7.28L209.53 7.28Q209.92 6.76 210.48 6.21 211.04 5.66 211.43 5.35L211.43 5.35Q211.7 5.13 211.87 5.07 212.04 5 212.17 5L212.17 5Q212.29 5 212.53 5.05 212.78 5.1 213.26 5.1L213.26 5.1Q214.95 5.1 216.78 4 218.61 2.91 220.39-0.12L220.39-0.12Q218.54-1.83 216.74-4.41 214.95-6.98 213.51-10 212.07-13.01 211.2-16.02 210.33-19.02 210.33-21.56L210.33-21.56Q210.33-22.09 210.6-22.41L210.6-22.41Q211.73-23.8 213.8-25.32L213.8-25.32Q214.17-25.56 214.46-25.56L214.46-25.56Q214.78-25.56 215.12-25.32L215.12-25.32Q216.24-24.51 217.01-23.8 217.78-23.1 218.32-22.41L218.32-22.41Q218.59-22.09 218.59-21.51L218.59-21.51 218.59-21.61Q218.59-19.68 219.05-17.53 219.51-15.38 220.32-13.34 221.13-11.3 222.13-9.66 223.13-8.01 224.2-7.03L224.2-7.03 224.32-7.03Q224.81-7.96 225.41-9.7 226.01-11.45 226.55-13.59 227.08-15.72 227.42-17.83 227.77-19.95 227.77-21.58L227.77-21.58 227.77-21.51Q227.77-22.09 228.01-22.41L228.01-22.41Q228.57-23.1 229.33-23.8 230.09-24.51 231.16-25.32L231.16-25.32Q231.5-25.56 231.79-25.56L231.79-25.56Q232.14-25.56 232.43-25.32L232.43-25.32Q233.53-24.51 234.28-23.8 235.04-23.1 235.58-22.41L235.58-22.41Q235.82-22.09 235.82-21.53L235.82-21.53Q235.8-19.31 234.97-15.73 234.14-12.16 232.55-7.98 230.96-3.81 228.69 0.2L228.69 0.2Q225.3 6.23 221.37 8.98 217.44 11.74 213.19 11.74ZM235.82-21.58L235.82-21.58 235.82-21.51 235.82-21.53Q235.82-21.56 235.82-21.58ZM210.33-21.51L210.33-21.58 210.33-21.56 210.33-21.51Z" opacity="1" transform="matrix(1,0,0,1,0,0)" fill="#000000" class="wordmark-text-0" data-fill-palette-color="primary" id="text-0"></path></svg></g></svg></g><g transform="matrix(1,0,0,1,0,105.24060359141052)"><svg viewBox="0 0 214.17407999999998 11.317179995578154" height="11.317179995578154" width="214.17407999999998"><g transform="matrix(1,0,0,1,0,0)"><svg width="214.17407999999998" viewBox="1.88 -39.5 993.74 52.51" height="11.317179995578154" data-palette-color="#32393f"><path d="M32.79-10.74L32.79-10.74Q32.79-8.47 32.21-6.74 31.64-5 30.6-3.74 29.57-2.47 28.15-1.61 26.73-0.76 25.06-0.24 23.39 0.27 21.52 0.49 19.65 0.71 17.72 0.71L17.72 0.71Q15.19 0.71 13.04 0.33 10.89-0.05 9-0.87 7.1-1.68 5.36-2.98 3.61-4.27 1.88-6.13L1.88-6.13 6.86-11.18Q7.54-9.5 8.74-8.07 9.94-6.64 11.36-5.62 12.79-4.59 14.33-4 15.87-3.42 17.24-3.42L17.24-3.42Q18.85-3.42 20.26-3.65 21.68-3.88 22.73-4.42 23.78-4.96 24.38-5.85 24.98-6.74 24.98-8.08L24.98-8.08Q24.98-9.11 24.51-9.84 24.05-10.57 23.3-11.1 22.56-11.62 21.61-11.99 20.65-12.35 19.67-12.61 18.68-12.87 17.72-13.07 16.77-13.28 16.04-13.5L16.04-13.5Q14.6-13.92 13.04-14.39 11.47-14.87 9.96-15.48 8.45-16.09 7.09-16.88 5.74-17.68 4.71-18.76 3.69-19.85 3.08-21.28 2.47-22.71 2.47-24.56L2.47-24.56Q2.47-26.78 3.02-28.5 3.56-30.22 4.57-31.49 5.57-32.76 6.93-33.63 8.3-34.5 9.94-35.02 11.57-35.55 13.42-35.78 15.26-36.01 17.19-36.01L17.19-36.01Q19.82-36.01 21.98-35.52 24.15-35.03 25.98-34.13 27.81-33.23 29.33-31.97 30.86-30.71 32.2-29.17L32.2-29.17 27.22-24.12Q26.64-25.88 25.6-27.29 24.56-28.71 23.29-29.72 22.02-30.74 20.63-31.29 19.24-31.84 17.94-31.84L17.94-31.84Q16.26-31.84 14.84-31.6 13.43-31.37 12.41-30.85 11.4-30.32 10.84-29.43 10.28-28.54 10.28-27.22L10.28-27.22Q10.28-26.17 10.69-25.44 11.11-24.71 11.8-24.19 12.5-23.68 13.38-23.35 14.26-23.02 15.2-22.78 16.14-22.53 17.05-22.35 17.97-22.17 18.73-21.95L18.73-21.95Q20.19-21.53 21.8-21.07 23.41-20.61 24.98-19.98 26.54-19.36 27.95-18.55 29.37-17.75 30.44-16.64 31.52-15.53 32.15-14.07 32.79-12.62 32.79-10.74ZM66.4-28.2L66.4 0 58.15 0 58.15-3.37Q56.69-1.37 54.62-0.4 52.56 0.56 50.1 0.56L50.1 0.56Q46.87 0.56 44.33-0.59 41.79-1.73 40.04-3.72 38.28-5.71 37.35-8.4 36.42-11.08 36.42-14.16L36.42-14.16Q36.42-17.24 37.35-19.92 38.28-22.61 40.04-24.6 41.79-26.59 44.33-27.73 46.87-28.88 50.1-28.88L50.1-28.88Q51.73-28.88 53.21-28.39 54.69-27.91 55.92-27.01 57.15-26.12 58.09-24.87 59.03-23.61 59.57-22.07L59.57-22.07 63.23-28.2 66.4-28.2ZM58.1-14.16L58.1-14.16Q58.1-15.26 57.99-16.48 57.88-17.7 57.61-18.9 57.35-20.09 56.87-21.18 56.39-22.27 55.65-23.11 54.9-23.95 53.85-24.44 52.81-24.93 51.41-24.93L51.41-24.93Q50.02-24.93 49-24.43 47.97-23.93 47.24-23.08 46.51-22.24 46.03-21.14 45.55-20.04 45.29-18.85 45.02-17.65 44.91-16.44 44.8-15.23 44.8-14.16L44.8-14.16Q44.8-13.09 44.91-11.87 45.02-10.64 45.29-9.45 45.55-8.25 46.03-7.15 46.51-6.05 47.24-5.21 47.97-4.37 49-3.87 50.02-3.37 51.41-3.37L51.41-3.37Q52.68-3.37 53.67-3.89 54.66-4.42 55.41-5.3 56.15-6.18 56.66-7.3 57.18-8.42 57.49-9.62 57.81-10.82 57.96-12 58.1-13.18 58.1-14.16ZM98.9-28.2L87.79 0 80.37 0 70.11-28.2 78.36-28.2 85.88-5.74 93.18-28.2 98.9-28.2ZM131.61-14.16L131.61-14.16Q131.61-11.96 131.02-10.03 130.44-8.11 129.4-6.47 128.36-4.83 126.9-3.53 125.43-2.22 123.69-1.32 121.94-0.42 119.95 0.07 117.96 0.56 115.86 0.56L115.86 0.56Q113.76 0.56 111.78 0.07 109.81-0.42 108.06-1.32 106.32-2.22 104.85-3.53 103.39-4.83 102.35-6.47 101.31-8.11 100.72-10.05 100.14-11.99 100.14-14.16L100.14-14.16Q100.14-16.33 100.72-18.27 101.31-20.21 102.35-21.85 103.39-23.49 104.85-24.79 106.32-26.1 108.06-27 109.81-27.91 111.78-28.39 113.76-28.88 115.86-28.88L115.86-28.88Q117.96-28.88 119.95-28.39 121.94-27.91 123.69-27 125.43-26.1 126.9-24.79 128.36-23.49 129.4-21.85 130.44-20.21 131.02-18.27 131.61-16.33 131.61-14.16ZM123.21-14.16L123.21-14.16Q123.21-15.33 123.08-16.64 122.94-17.94 122.62-19.2 122.31-20.46 121.76-21.62 121.21-22.78 120.4-23.65 119.6-24.51 118.47-25.04 117.35-25.56 115.86-25.56L115.86-25.56Q114.45-25.56 113.35-25.02 112.25-24.49 111.43-23.6 110.61-22.71 110.06-21.53 109.51-20.36 109.17-19.1 108.83-17.85 108.68-16.56 108.54-15.28 108.54-14.16L108.54-14.16Q108.54-13.04 108.68-11.76 108.83-10.47 109.17-9.2 109.51-7.93 110.06-6.77 110.61-5.62 111.43-4.72 112.25-3.83 113.35-3.3 114.45-2.76 115.86-2.76L115.86-2.76Q117.33-2.76 118.45-3.28 119.57-3.81 120.39-4.69 121.21-5.57 121.75-6.71 122.28-7.86 122.61-9.13 122.94-10.4 123.08-11.69 123.21-12.99 123.21-14.16ZM135.37-12.06L135.37-12.06Q135.37-13.99 135.7-16.06 136.03-18.14 136.65-20.21 137.27-22.29 138.15-24.32 139.03-26.34 140.13-28.2L140.13-28.2 146.16-28.2Q145.55-26.37 145.07-24.38 144.59-22.39 144.26-20.4 143.94-18.41 143.75-16.5 143.57-14.6 143.57-12.96L143.57-12.96Q143.57-12.01 143.65-10.93 143.74-9.84 143.96-8.75 144.18-7.67 144.58-6.67 144.99-5.66 145.62-4.9 146.25-4.13 147.17-3.67 148.09-3.22 149.33-3.22L149.33-3.22Q150.55-3.22 151.52-3.77 152.48-4.32 153.21-5.21 153.95-6.1 154.46-7.25 154.97-8.4 155.3-9.61 155.63-10.82 155.79-11.98 155.95-13.13 155.95-14.06L155.95-14.06 155.95-28.2 164.2-28.2 164.2 0 161.03 0 157.24-6.57Q156.53-4.93 155.52-3.6 154.51-2.27 153.21-1.32 151.92-0.37 150.34 0.15 148.77 0.66 146.94 0.66L146.94 0.66Q144.01 0.66 141.84-0.29 139.66-1.25 138.22-2.93 136.78-4.61 136.07-6.95 135.37-9.28 135.37-12.06ZM195.06-25.71L195.06-25.71 190.42-18.02Q190.12-18.99 189.66-20.21 189.2-21.44 188.51-22.5 187.83-23.56 186.88-24.28 185.93-25 184.68-25L184.68-25Q183.53-25 182.69-24.41 181.85-23.83 181.26-22.89 180.68-21.95 180.3-20.76 179.92-19.58 179.71-18.37 179.5-17.16 179.43-16.05 179.36-14.94 179.36-14.14L179.36-14.14 179.36 0 171.08 0 171.08-28.2 174.26-28.2 177.6-21.63Q178.28-23.22 179.16-24.55 180.04-25.88 181.19-26.84 182.34-27.81 183.79-28.34 185.24-28.88 187.07-28.88L187.07-28.88Q188.02-28.88 189.2-28.72 190.37-28.56 191.49-28.19 192.61-27.81 193.57-27.2 194.52-26.59 195.06-25.71ZM238.43-4.49L238.43 0 213.19 0 213.19-35.16 238.43-35.16 238.43-30.66 222.88-30.66 222.88-19.8 234.89-19.8 234.89-15.33 222.88-15.33 222.88-4.49 238.43-4.49ZM268.71-28.2L257.6 0 250.18 0 239.92-28.2 248.17-28.2 255.69-5.74 262.99-28.2 268.71-28.2ZM278.42-13.38L278.42-13.38Q279.93-13.04 281.45-12.84 282.96-12.65 284.5-12.65L284.5-12.65Q286.11-12.65 287.49-12.95 288.87-13.26 289.88-13.98 290.9-14.7 291.48-15.89 292.07-17.09 292.07-18.87L292.07-18.87Q292.07-20.31 291.68-21.51 291.29-22.71 290.52-23.56 289.75-24.41 288.62-24.89 287.5-25.37 286.01-25.37L286.01-25.37Q284.62-25.37 283.51-24.85 282.4-24.34 281.56-23.47 280.71-22.61 280.12-21.46 279.52-20.31 279.13-19.07 278.74-17.82 278.57-16.55 278.4-15.28 278.4-14.16L278.4-14.16Q278.4-13.96 278.4-13.77 278.4-13.57 278.42-13.38ZM298.76-18.95L298.76-18.95Q298.76-17.21 298.2-15.86 297.63-14.5 296.67-13.48 295.71-12.45 294.44-11.74 293.17-11.04 291.73-10.58 290.29-10.13 288.76-9.94 287.23-9.74 285.79-9.74L285.79-9.74Q283.96-9.74 282.18-10 280.4-10.25 278.66-10.82L278.66-10.82Q278.93-9.2 279.52-7.75 280.1-6.3 281.08-5.21 282.06-4.13 283.49-3.49 284.91-2.86 286.87-2.86L286.87-2.86Q288.16-2.86 289.33-3.25 290.5-3.64 291.48-4.35 292.46-5.05 293.2-6.03 293.95-7.01 294.41-8.2L294.41-8.2 297.98-6.88Q297.17-4.96 295.77-3.55 294.36-2.15 292.59-1.23 290.82-0.32 288.83 0.12 286.84 0.56 284.89 0.56L284.89 0.56Q281.67 0.56 278.93-0.52 276.2-1.61 274.22-3.56 272.24-5.52 271.12-8.23 270-10.94 270-14.16L270-14.16Q270-17.38 271.12-20.09 272.24-22.8 274.22-24.76 276.2-26.71 278.93-27.8 281.67-28.88 284.89-28.88L284.89-28.88Q286.45-28.88 288.09-28.66 289.72-28.44 291.26-27.97 292.8-27.49 294.17-26.73 295.53-25.98 296.55-24.87 297.56-23.75 298.16-22.29 298.76-20.83 298.76-18.95ZM327.88-25.71L327.88-25.71 323.24-18.02Q322.95-18.99 322.48-20.21 322.02-21.44 321.34-22.5 320.65-23.56 319.7-24.28 318.75-25 317.5-25L317.5-25Q316.36-25 315.51-24.41 314.67-23.83 314.09-22.89 313.5-21.95 313.12-20.76 312.74-19.58 312.54-18.37 312.33-17.16 312.26-16.05 312.18-14.94 312.18-14.14L312.18-14.14 312.18 0 303.91 0 303.91-28.2 307.08-28.2 310.42-21.63Q311.11-23.22 311.99-24.55 312.87-25.88 314.01-26.84 315.16-27.81 316.61-28.34 318.07-28.88 319.9-28.88L319.9-28.88Q320.85-28.88 322.02-28.72 323.19-28.56 324.32-28.19 325.44-27.81 326.39-27.2 327.34-26.59 327.88-25.71ZM350.85-28.2L356.56-28.2 346.31-3.39Q344.55 0.85 342.39 5.02 340.23 9.18 337.72 13.01L337.72 13.01 334.49 11.06Q335.1 9.96 335.93 8.52 336.76 7.08 337.57 5.54 338.38 4 339.06 2.5 339.74 1 340.11-0.24L340.11-0.24 327.78-28.2 336.03-28.2 344.41-9.13 350.85-28.2ZM389.74 0L381.71-26.22 378.97 0 372.99 0 378.97-35.16 387.83-35.16 396.06-8.33 404.39-35.16 413.25-35.16 418.23 0 408.37 0 405.46-25.54 398.6 0 389.74 0ZM453.21-14.16L453.21-14.16Q453.21-11.96 452.63-10.03 452.04-8.11 451-6.47 449.97-4.83 448.5-3.53 447.04-2.22 445.29-1.32 443.54-0.42 441.55 0.07 439.56 0.56 437.47 0.56L437.47 0.56Q435.37 0.56 433.39 0.07 431.41-0.42 429.66-1.32 427.92-2.22 426.45-3.53 424.99-4.83 423.95-6.47 422.91-8.11 422.33-10.05 421.74-11.99 421.74-14.16L421.74-14.16Q421.74-16.33 422.33-18.27 422.91-20.21 423.95-21.85 424.99-23.49 426.45-24.79 427.92-26.1 429.66-27 431.41-27.91 433.39-28.39 435.37-28.88 437.47-28.88L437.47-28.88Q439.56-28.88 441.55-28.39 443.54-27.91 445.29-27 447.04-26.1 448.5-24.79 449.97-23.49 451-21.85 452.04-20.21 452.63-18.27 453.21-16.33 453.21-14.16ZM444.81-14.16L444.81-14.16Q444.81-15.33 444.68-16.64 444.55-17.94 444.23-19.2 443.91-20.46 443.36-21.62 442.81-22.78 442.01-23.65 441.2-24.51 440.08-25.04 438.95-25.56 437.47-25.56L437.47-25.56Q436.05-25.56 434.95-25.02 433.85-24.49 433.03-23.6 432.22-22.71 431.67-21.53 431.12-20.36 430.78-19.1 430.43-17.85 430.29-16.56 430.14-15.28 430.14-14.16L430.14-14.16Q430.14-13.04 430.29-11.76 430.43-10.47 430.78-9.2 431.12-7.93 431.67-6.77 432.22-5.62 433.03-4.72 433.85-3.83 434.95-3.3 436.05-2.76 437.47-2.76L437.47-2.76Q438.93-2.76 440.05-3.28 441.18-3.81 441.99-4.69 442.81-5.57 443.35-6.71 443.89-7.86 444.22-9.13 444.55-10.4 444.68-11.69 444.81-12.99 444.81-14.16ZM502.04-16.46L502.04-16.46Q502.04-13.55 501.35-10.4 500.67-7.25 499.44-4.26 498.2-1.27 496.47 1.39 494.74 4.05 492.61 6.01L492.61 6.01 489.51 4.32Q490.22 3.05 490.81 1.46 491.39-0.12 491.88-1.88 492.37-3.64 492.74-5.49 493.1-7.35 493.36-9.19 493.61-11.04 493.74-12.77 493.86-14.5 493.86-16.02L493.86-16.02Q493.86-16.87 493.81-17.87 493.76-18.87 493.6-19.87 493.44-20.87 493.13-21.79 492.81-22.71 492.26-23.43 491.71-24.15 490.89-24.57 490.07-25 488.93-25L488.93-25Q487.8-25 487.01-24.4 486.22-23.8 485.66-22.85 485.09-21.9 484.76-20.7 484.44-19.51 484.26-18.3 484.09-17.09 484.03-15.99 483.97-14.89 483.97-14.14L483.97-14.14 483.97 0 475.74 0 475.74-13.13Q475.74-13.99 475.77-15.2 475.79-16.41 475.71-17.72 475.62-19.04 475.39-20.35 475.16-21.66 474.66-22.68 474.16-23.71 473.3-24.35 472.45-25 471.15-25L471.15-25Q470.06-25 469.31-24.39 468.57-23.78 468.07-22.81 467.57-21.85 467.28-20.64 467-19.43 466.87-18.23 466.73-17.02 466.71-15.93 466.69-14.84 466.69-14.14L466.69-14.14 466.69 0 458.41 0 458.41-28.2 461.58-28.2 464.61-21.63Q465.64-25.05 467.85-26.97 470.06-28.88 473.72-28.88L473.72-28.88Q477.01-28.88 479.19-27.51 481.36-26.15 482.6-23.07L482.6-23.07Q483.31-24.41 484.18-25.49 485.05-26.56 486.11-27.32 487.17-28.08 488.46-28.48 489.76-28.88 491.32-28.88L491.32-28.88Q494.2-28.88 496.24-27.94 498.28-27 499.57-25.34 500.87-23.68 501.45-21.4 502.04-19.12 502.04-16.46ZM514.32-13.38L514.32-13.38Q515.83-13.04 517.34-12.84 518.86-12.65 520.39-12.65L520.39-12.65Q522.01-12.65 523.39-12.95 524.76-13.26 525.78-13.98 526.79-14.7 527.38-15.89 527.96-17.09 527.96-18.87L527.96-18.87Q527.96-20.31 527.57-21.51 527.18-22.71 526.41-23.56 525.64-24.41 524.52-24.89 523.4-25.37 521.91-25.37L521.91-25.37Q520.52-25.37 519.41-24.85 518.29-24.34 517.45-23.47 516.61-22.61 516.01-21.46 515.41-20.31 515.02-19.07 514.63-17.82 514.46-16.55 514.29-15.28 514.29-14.16L514.29-14.16Q514.29-13.96 514.29-13.77 514.29-13.57 514.32-13.38ZM534.65-18.95L534.65-18.95Q534.65-17.21 534.09-15.86 533.53-14.5 532.56-13.48 531.6-12.45 530.33-11.74 529.06-11.04 527.62-10.58 526.18-10.13 524.65-9.94 523.13-9.74 521.69-9.74L521.69-9.74Q519.86-9.74 518.08-10 516.29-10.25 514.56-10.82L514.56-10.82Q514.83-9.2 515.41-7.75 516-6.3 516.98-5.21 517.95-4.13 519.38-3.49 520.81-2.86 522.76-2.86L522.76-2.86Q524.06-2.86 525.23-3.25 526.4-3.64 527.38-4.35 528.35-5.05 529.1-6.03 529.84-7.01 530.31-8.2L530.31-8.2 533.87-6.88Q533.07-4.96 531.66-3.55 530.26-2.15 528.49-1.23 526.72-0.32 524.73 0.12 522.74 0.56 520.79 0.56L520.79 0.56Q517.56 0.56 514.83-0.52 512.09-1.61 510.12-3.56 508.14-5.52 507.02-8.23 505.89-10.94 505.89-14.16L505.89-14.16Q505.89-17.38 507.02-20.09 508.14-22.8 510.12-24.76 512.09-26.71 514.83-27.8 517.56-28.88 520.79-28.88L520.79-28.88Q522.35-28.88 523.98-28.66 525.62-28.44 527.16-27.97 528.7-27.49 530.06-26.73 531.43-25.98 532.44-24.87 533.46-23.75 534.05-22.29 534.65-20.83 534.65-18.95ZM568.63-16.16L568.63-16.16Q568.63-13.31 567.94-10.21 567.24-7.1 566-4.13 564.75-1.15 563.02 1.48 561.29 4.1 559.21 6.01L559.21 6.01 556.11 4.32Q556.77 3.1 557.35 1.59 557.94 0.07 558.42-1.62 558.89-3.32 559.27-5.13 559.65-6.93 559.91-8.7 560.16-10.47 560.3-12.15 560.43-13.82 560.43-15.26L560.43-15.26Q560.43-16.21 560.36-17.3 560.28-18.38 560.05-19.47 559.82-20.56 559.43-21.56 559.04-22.56 558.39-23.32 557.75-24.07 556.83-24.54 555.91-25 554.67-25L554.67-25Q553.45-25 552.5-24.45 551.54-23.9 550.81-23.01 550.08-22.12 549.55-20.97 549.03-19.82 548.7-18.62 548.37-17.41 548.22-16.24 548.08-15.06 548.08-14.14L548.08-14.14 548.08 0 539.8 0 539.8-28.2 542.98-28.2 546.76-21.63Q547.44-23.27 548.47-24.61 549.49-25.95 550.79-26.9 552.08-27.86 553.66-28.37 555.23-28.88 557.06-28.88L557.06-28.88Q559.99-28.88 562.16-27.93 564.34-26.98 565.78-25.28 567.22-23.58 567.93-21.25 568.63-18.92 568.63-16.16ZM584.4-24.93L584.4 0 576.13 0 576.13-24.93 571-24.93 571-28.2 576.13-28.2 576.13-38.57 584.4-38.57 584.4-28.2 592.95-28.2 592.95-24.93 584.4-24.93ZM602.66-3.66L602.66-3.66Q602.66-2.54 602.37-1.37 602.08-0.2 601.55 0.92 601.03 2.03 600.32 3.02 599.61 4 598.78 4.76L598.78 4.76 595.26 2.91Q595.78 2.51 596.3 1.88 596.83 1.25 596.93 0.61L596.93 0.61Q596.22 0.39 595.64-0.02 595.07-0.44 594.65-1.01 594.24-1.59 594.01-2.26 593.78-2.93 593.78-3.66L593.78-3.66Q593.78-4.57 594.13-5.38 594.48-6.2 595.08-6.8 595.68-7.4 596.49-7.75 597.29-8.11 598.22-8.11L598.22-8.11Q599.15-8.11 599.95-7.75 600.76-7.4 601.37-6.8 601.98-6.2 602.32-5.38 602.66-4.57 602.66-3.66ZM633.15-13.13L633.15 0 623.46 0 623.46-35.16 642.45-35.16Q644.92-35.16 647.18-34.5 649.43-33.84 651.17-32.51 652.9-31.18 653.94-29.16 654.98-27.15 654.98-24.44L654.98-24.44Q654.98-22.73 654.49-21.23 654-19.73 653.13-18.48 652.27-17.24 651.09-16.24 649.92-15.23 648.53-14.55 647.14-13.87 645.59-13.5 644.04-13.13 642.45-13.13L642.45-13.13 633.15-13.13ZM645.16-24.44L645.16-24.44Q645.16-27.83 643.44-29.77 641.72-31.71 638.25-31.71L638.25-31.71 633.15-31.71 633.15-16.46 638.25-16.46Q640.11-16.46 641.41-17.05 642.72-17.65 643.55-18.73 644.38-19.8 644.77-21.25 645.16-22.71 645.16-24.44ZM687.35-28.2L687.35 0 679.1 0 679.1-3.37Q677.63-1.37 675.57-0.4 673.5 0.56 671.04 0.56L671.04 0.56Q667.82 0.56 665.28-0.59 662.74-1.73 660.98-3.72 659.22-5.71 658.29-8.4 657.37-11.08 657.37-14.16L657.37-14.16Q657.37-17.24 658.29-19.92 659.22-22.61 660.98-24.6 662.74-26.59 665.28-27.73 667.82-28.88 671.04-28.88L671.04-28.88Q672.67-28.88 674.15-28.39 675.63-27.91 676.86-27.01 678.09-26.12 679.03-24.87 679.97-23.61 680.51-22.07L680.51-22.07 684.17-28.2 687.35-28.2ZM679.05-14.16L679.05-14.16Q679.05-15.26 678.94-16.48 678.83-17.7 678.56-18.9 678.29-20.09 677.81-21.18 677.34-22.27 676.59-23.11 675.85-23.95 674.8-24.44 673.75-24.93 672.36-24.93L672.36-24.93Q670.97-24.93 669.94-24.43 668.91-23.93 668.18-23.08 667.45-22.24 666.97-21.14 666.5-20.04 666.23-18.85 665.96-17.65 665.85-16.44 665.74-15.23 665.74-14.16L665.74-14.16Q665.74-13.09 665.85-11.87 665.96-10.64 666.23-9.45 666.5-8.25 666.97-7.15 667.45-6.05 668.18-5.21 668.91-4.37 669.94-3.87 670.97-3.37 672.36-3.37L672.36-3.37Q673.63-3.37 674.62-3.89 675.6-4.42 676.35-5.3 677.09-6.18 677.61-7.3 678.12-8.42 678.44-9.62 678.75-10.82 678.9-12 679.05-13.18 679.05-14.16ZM713.76-28.2L719.47-28.2 709.22-3.39Q707.46 0.85 705.3 5.02 703.14 9.18 700.63 13.01L700.63 13.01 697.4 11.06Q698.01 9.96 698.84 8.52 699.67 7.08 700.48 5.54 701.29 4 701.97 2.5 702.65 1 703.02-0.24L703.02-0.24 690.69-28.2 698.94-28.2 707.32-9.13 713.76-28.2ZM758.78-22.46L753.14 0 744.27 0 735.04-35.16 744.93-35.16 750.77-10.21 755.94-35.16 764.83-35.16 770.49-9.57 776.87-35.16 782.85-35.16 772.62 0 763.73 0 758.78-22.46ZM795.59-35.01L795.59-35.01Q795.59-34.08 795.24-33.25 794.88-32.42 794.27-31.81 793.66-31.2 792.83-30.85 792-30.49 791.07-30.49L791.07-30.49Q790.14-30.49 789.33-30.85 788.51-31.2 787.9-31.81 787.29-32.42 786.93-33.25 786.58-34.08 786.58-35.01L786.58-35.01Q786.58-35.94 786.93-36.76 787.29-37.57 787.9-38.18 788.51-38.79 789.33-39.15 790.14-39.5 791.07-39.5L791.07-39.5Q792-39.5 792.83-39.15 793.66-38.79 794.27-38.18 794.88-37.57 795.24-36.76 795.59-35.94 795.59-35.01ZM795.22-28.17L795.22 0 786.95 0 786.95-28.17 795.22-28.17ZM812.75-24.93L812.75 0 804.47 0 804.47-24.93 799.35-24.93 799.35-28.2 804.47-28.2 804.47-38.57 812.75-38.57 812.75-28.2 821.29-28.2 821.29-24.93 812.75-24.93ZM853.96-16.16L853.96-16.16Q853.96-13.31 853.26-10.21 852.57-7.1 851.32-4.13 850.08-1.15 848.34 1.48 846.61 4.1 844.53 6.01L844.53 6.01 841.43 4.32Q842.09 3.1 842.68 1.59 843.26 0.07 843.74-1.62 844.22-3.32 844.6-5.13 844.97-6.93 845.23-8.7 845.49-10.47 845.62-12.15 845.76-13.82 845.76-15.26L845.76-15.26Q845.76-16.21 845.68-17.3 845.61-18.38 845.38-19.47 845.14-20.56 844.75-21.56 844.36-22.56 843.72-23.32 843.07-24.07 842.15-24.54 841.24-25 839.99-25L839.99-25Q838.77-25 837.82-24.45 836.87-23.9 836.14-23.01 835.4-22.12 834.88-20.97 834.35-19.82 834.02-18.62 833.69-17.41 833.55-16.24 833.4-15.06 833.4-14.14L833.4-14.14 833.4 0 825.13 0 825.13-38.57 833.38-38.57 833.38-24.05Q834.96-26.37 837.27-27.62 839.58-28.88 842.39-28.88L842.39-28.88Q845.32-28.88 847.49-27.93 849.66-26.98 851.1-25.28 852.54-23.58 853.25-21.25 853.96-18.92 853.96-16.16ZM899.34-4.49L899.34 0 874.09 0 874.09-35.16 899.34-35.16 899.34-30.66 883.79-30.66 883.79-19.8 895.8-19.8 895.8-15.33 883.79-15.33 883.79-4.49 899.34-4.49ZM932.15-28.2L932.15 0 923.9 0 923.9-3.37Q922.43-1.37 920.37-0.4 918.31 0.56 915.84 0.56L915.84 0.56Q912.62 0.56 910.08-0.59 907.54-1.73 905.78-3.72 904.02-5.71 903.1-8.4 902.17-11.08 902.17-14.16L902.17-14.16Q902.17-17.24 903.1-19.92 904.02-22.61 905.78-24.6 907.54-26.59 910.08-27.73 912.62-28.88 915.84-28.88L915.84-28.88Q917.48-28.88 918.95-28.39 920.43-27.91 921.66-27.01 922.9-26.12 923.84-24.87 924.78-23.61 925.31-22.07L925.31-22.07 928.98-28.2 932.15-28.2ZM923.85-14.16L923.85-14.16Q923.85-15.26 923.74-16.48 923.63-17.7 923.36-18.9 923.09-20.09 922.62-21.18 922.14-22.27 921.39-23.11 920.65-23.95 919.6-24.44 918.55-24.93 917.16-24.93L917.16-24.93Q915.77-24.93 914.74-24.43 913.72-23.93 912.98-23.08 912.25-22.24 911.78-21.14 911.3-20.04 911.03-18.85 910.76-17.65 910.65-16.44 910.54-15.23 910.54-14.16L910.54-14.16Q910.54-13.09 910.65-11.87 910.76-10.64 911.03-9.45 911.3-8.25 911.78-7.15 912.25-6.05 912.98-5.21 913.72-4.37 914.74-3.87 915.77-3.37 917.16-3.37L917.16-3.37Q918.43-3.37 919.42-3.89 920.41-4.42 921.15-5.3 921.9-6.18 922.41-7.3 922.92-8.42 923.24-9.62 923.56-10.82 923.7-12 923.85-13.18 923.85-14.16ZM963.3-9.01L963.3-9.01Q963.3-7.15 962.76-5.71 962.22-4.27 961.3-3.21 960.37-2.15 959.1-1.43 957.83-0.71 956.38-0.27 954.92 0.17 953.34 0.37 951.75 0.56 950.19 0.56L950.19 0.56Q948.09 0.56 946.48 0.29 944.87 0.02 943.4-0.57 941.94-1.17 940.48-2.12 939.03-3.08 937.25-4.44L937.25-4.44 942.06-8.37Q942.72-7.13 943.8-6.12 944.89-5.1 946.06-4.37 947.23-3.64 948.33-3.25 949.43-2.86 950.12-2.86L950.12-2.86Q950.68-2.86 951.38-2.89 952.09-2.93 952.83-3.04 953.56-3.15 954.27-3.37 954.97-3.59 955.52-3.97 956.07-4.35 956.4-4.92 956.73-5.49 956.73-6.3L956.73-6.3Q956.73-7.13 956.3-7.75 955.88-8.37 955.19-8.84 954.51-9.3 953.63-9.62 952.75-9.94 951.86-10.18 950.97-10.42 950.14-10.61 949.31-10.79 948.7-10.96L948.7-10.96Q947.58-11.28 946.33-11.61 945.09-11.94 943.87-12.37 942.64-12.79 941.53-13.38 940.42-13.96 939.58-14.78 938.74-15.6 938.24-16.71 937.74-17.82 937.74-19.31L937.74-19.31Q937.74-22.05 938.82-23.89 939.91-25.73 941.69-26.84 943.47-27.95 945.75-28.42 948.02-28.88 950.36-28.88L950.36-28.88Q951.97-28.88 953.75-28.55 955.54-28.22 957.22-27.58 958.9-26.93 960.37-26 961.83-25.07 962.81-23.88L962.81-23.88 958-19.92Q957.46-21.39 956.6-22.44 955.73-23.49 954.72-24.16 953.7-24.83 952.64-25.15 951.58-25.46 950.68-25.46L950.68-25.46Q949.8-25.46 948.7-25.39 947.6-25.32 946.64-24.98 945.67-24.63 945-23.94 944.33-23.24 944.33-22.02L944.33-22.02Q944.33-21.14 944.73-20.52 945.13-19.9 945.79-19.45 946.45-18.99 947.3-18.69 948.14-18.38 949.02-18.15 949.9-17.92 950.73-17.75 951.56-17.58 952.21-17.38L952.21-17.38Q953.34-17.07 954.6-16.74 955.85-16.41 957.07-15.98 958.29-15.55 959.43-14.98 960.56-14.4 961.42-13.57 962.27-12.74 962.79-11.63 963.3-10.52 963.3-9.01ZM975.28-13.38L975.28-13.38Q976.8-13.04 978.31-12.84 979.82-12.65 981.36-12.65L981.36-12.65Q982.97-12.65 984.35-12.95 985.73-13.26 986.75-13.98 987.76-14.7 988.35-15.89 988.93-17.09 988.93-18.87L988.93-18.87Q988.93-20.31 988.54-21.51 988.15-22.71 987.38-23.56 986.61-24.41 985.49-24.89 984.37-25.37 982.88-25.37L982.88-25.37Q981.48-25.37 980.37-24.85 979.26-24.34 978.42-23.47 977.58-22.61 976.98-21.46 976.38-20.31 975.99-19.07 975.6-17.82 975.43-16.55 975.26-15.28 975.26-14.16L975.26-14.16Q975.26-13.96 975.26-13.77 975.26-13.57 975.28-13.38ZM995.62-18.95L995.62-18.95Q995.62-17.21 995.06-15.86 994.5-14.5 993.53-13.48 992.57-12.45 991.3-11.74 990.03-11.04 988.59-10.58 987.15-10.13 985.62-9.94 984.1-9.74 982.66-9.74L982.66-9.74Q980.83-9.74 979.04-10 977.26-10.25 975.53-10.82L975.53-10.82Q975.8-9.2 976.38-7.75 976.97-6.3 977.94-5.21 978.92-4.13 980.35-3.49 981.78-2.86 983.73-2.86L983.73-2.86Q985.02-2.86 986.2-3.25 987.37-3.64 988.35-4.35 989.32-5.05 990.07-6.03 990.81-7.01 991.27-8.2L991.27-8.2 994.84-6.88Q994.03-4.96 992.63-3.55 991.23-2.15 989.46-1.23 987.69-0.32 985.7 0.12 983.71 0.56 981.75 0.56L981.75 0.56Q978.53 0.56 975.8-0.52 973.06-1.61 971.08-3.56 969.11-5.52 967.98-8.23 966.86-10.94 966.86-14.16L966.86-14.16Q966.86-17.38 967.98-20.09 969.11-22.8 971.08-24.76 973.06-26.71 975.8-27.8 978.53-28.88 981.75-28.88L981.75-28.88Q983.32-28.88 984.95-28.66 986.59-28.44 988.13-27.97 989.66-27.49 991.03-26.73 992.4-25.98 993.41-24.87 994.42-23.75 995.02-22.29 995.62-20.83 995.62-18.95Z" opacity="1" transform="matrix(1,0,0,1,0,0)" fill="#000000" class="slogan-text-1" data-fill-palette-color="secondary" id="text-1"></path></svg></g></svg></g></svg></g></svg></g><g transform="matrix(1,0,0,1,0,0.2913944589674671)"><svg viewBox="0 0 75.98173722617148 116.55778358698868" height="116.55778358698868" width="75.98173722617148"><g><svg xmlns="http://www.w3.org/2000/svg" xmlns:xlink="http://www.w3.org/1999/xlink" xml:space="preserve" version="1.1" style="shape-rendering:geometricPrecision;text-rendering:geometricPrecision;image-rendering:optimizeQuality;" viewBox="0 0 8021.318157713448 12304.891939047553" x="0" y="0" fill-rule="evenodd" clip-rule="evenodd" id="icon-0" width="75.98173722617148" height="116.55778358698868" class="icon-icon-0" data-fill-palette-color="accent"><g fill="#040404" data-fill-palette-color="accent"><path class="" d="M922 0H4511C4764 0 4995 104 5162 271S5433 668 5433 922V5000C5896 5184 6109 5559 6319 5928 6463 6182 6606 6432 6828 6565 7052 6698 7250 6852 7393 7041 7547 7244 7635 7481 7626 7766 7590 8814 7676 9296 7826 10133 7875 10403 7930 10708 7988 11071 8070 11292 7996 11494 7817 11670 7688 11797 7498 11909 7276 12003 7065 12092 6824 12165 6583 12217 5883 12369 5134 12337 4929 12017 4919 12001 4911 11984 4905 11967 4889 11920 4867 11863 4842 11798L4772 11623C4510 11407 4243 11173 4001 10915 3769 10667 3564 10399 3415 10105 3181 10072 3055 10095 2833 10134 2737 10152 2627 10172 2520 10188 2189 10237 1945 10068 1814 9828 1759 9728 1725 9614 1714 9500 1704 9383 1717 9264 1757 9157L1766 9135C1774 9114 1784 9094 1794 9074H922C668 9074 438 8970 271 8803 104 8637 0 8406 0 8152V922C0 668 104 438 271 271S668 0 922 0M4840 7056C4882 7047 4925 7049 4966 7061V922C4966 797 4914 683 4832 601 4750 518 4636 467 4511 467H922C797 467 683 518 601 601 518 683 467 797 467 922V8152C467 8277 518 8391 601 8473 683 8556 797 8607 922 8607H3526C3401 8440 3274 8281 3141 8127L3136 8121C3022 8217 2876 8275 2716 8275 2538 8275 2376 8203 2259 8086 2141 7968 2069 7806 2069 7628 2069 7457 2134 7302 2242 7186 2040 6955 1988 6677 2042 6432 2070 6306 2127 6188 2206 6091 2286 5991 2390 5910 2512 5859 2756 5755 3066 5770 3386 5990 3743 6236 4088 6482 4418 6730 4563 6839 4703 6947 4840 7056M5433 7485L5728 7780C5828 7879 5828 8042 5729 8141 5629 8241 5467 8242 5367 8143L5069 7844C5062 7839 5055 7834 5048 7828 4762 7584 4458 7342 4139 7102 3819 6861 3478 6618 3122 6373 2951 6255 2801 6241 2692 6287 2644 6307 2602 6341 2568 6382 2533 6426 2509 6477 2496 6532 2469 6654 2503 6796 2625 6914 2948 7227 3231 7518 3494 7824 3734 8103 3957 8394 4178 8727 4226 8763 4260 8817 4269 8880 4277 8903 4281 8927 4281 8952 4281 8962 4280 8973 4279 8982 4314 9327 4373 9588 4476 9814 4588 10057 4757 10272 5010 10519 5102 10609 5104 10756 5014 10848 4925 10940 4778 10942 4685 10853 4391 10566 4192 10309 4053 10007 3943 9767 3876 9506 3833 9187L2393 9198C2289 9199 2226 9245 2198 9307L2194 9319C2178 9362 2173 9410 2177 9458 2182 9510 2197 9561 2222 9606 2266 9686 2346 9742 2453 9726 2588 9706 2676 9690 2751 9677 3064 9621 3220 9593 3616 9667 3688 9681 3753 9728 3785 9801 3913 10089 4111 10353 4340 10598 4572 10845 4839 11076 5101 11292 5136 11317 5165 11351 5182 11394L5276 11628 5334 11783C5453 11906 5970 11873 6485 11762 6703 11714 6916 11650 7095 11574 7265 11503 7404 11422 7490 11338 7535 11294 7559 11255 7550 11228 7542 11210 7536 11190 7533 11169 7472 10789 7417 10484 7369 10215 7213 9347 7123 8847 7161 7751 7166 7582 7114 7442 7023 7322 6921 7187 6768 7071 6589 6964 6262 6769 6089 6465 5915 6158 5781 5922 5645 5684 5433 5530zM2716 1822C3236 1822 3707 2033 4047 2373 4388 2714 4598 3184 4598 3704 4598 4223 4388 4694 4047 5034 3706 5375 3236 5586 2716 5586 2197 5586 1726 5375 1385 5035 1045 4694 834 4224 834 3704 834 3185 1045 2715 1385 2374 1727 2033 2197 1822 2716 1822M3406 2791C3948 2830 3941 3494 3938 3878L3937 3955C3938 4085 3882 4204 3793 4290 3723 4357 3632 4404 3531 4420V5072C3645 5004 3749 4923 3842 4830 4130 4542 4308 4144 4308 3704 4308 3265 4129 2867 3842 2579 3554 2291 3156 2113 2716 2113 2277 2113 1878 2291 1591 2578 1303 2866 1125 3264 1125 3704S1303 4542 1591 4830C1708 4947 1844 5046 1993 5122V4413C1895 4396 1807 4349 1740 4281 1654 4196 1600 4077 1600 3946V2944C1600 2870 1660 2811 1734 2811 1807 2811 1867 2870 1867 2944V3472H1993V2944C1993 2870 2053 2811 2126 2811 2200 2811 2260 2870 2260 2944V3472H2385V2944C2385 2870 2445 2811 2519 2811 2592 2811 2652 2870 2652 2944V3946C2652 4077 2599 4196 2513 4281L2504 4289C2438 4352 2353 4397 2260 4413V5229C2404 5273 2558 5296 2716 5296 2900 5296 3076 5265 3240 5207V4420C3139 4404 3048 4357 2978 4290 2889 4204 2833 4085 2833 3955V3945C2833 3861 2833 3740 2844 3604 2872 3214 2986 2760 3406 2791M3648 3876C3651 3592 3656 3100 3386 3080 3208 3067 3152 3367 3133 3624 3124 3744 3124 3862 3124 3945V3955C3124 4003 3145 4048 3179 4081 3215 4115 3264 4136 3319 4136H3452C3507 4136 3557 4115 3592 4081 3626 4048 3647 4003 3647 3955zM2385 3739H1867V3946C1867 4003 1891 4055 1928 4093S2017 4154 2075 4154H2178C2233 4154 2282 4133 2319 4099L2325 4093C2362 4055 2385 4003 2385 3946zM2929 7889C2783 7729 2628 7570 2463 7406 2411 7466 2380 7543 2380 7628 2380 7720 2417 7805 2478 7866S2623 7964 2716 7964C2797 7964 2871 7936 2929 7889" fill="#000000" fill-rule="nonzero" data-fill-palette-color="accent"></path></g></svg></g></svg></g></svg></g><defs></defs></svg><rect width="395.52" height="89.20540734126274" fill="none" stroke="none" visibility="hidden"></rect></g></svg></g></svg>